<svg width="33" height="25" viewBox="0 0 33 25" fill="none" xmlns="http://www.w3.org/2000/svg">
<g filter="url(#filter0_d_302_200)">
<path d="M6.5 5C7.88071 5 9 3.88071 9 2.5C9 1.11929 7.88071 0 6.5 0C5.11929 0 4 1.11929 4 2.5C4 3.88071 5.11929 5 6.5 5Z" fill="#DD9C3C"/>
<path d="M26.5 5C27.8807 5 29 3.88071 29 2.5C29 1.11929 27.8807 0 26.5 0C25.1193 0 24 1.11929 24 2.5C24 3.88071 25.1193 5 26.5 5Z" fill="#DD9C3C"/>
<path d="M18.1335 0.982396C18.7596 1.52496 18.8272 2.47229 18.2847 3.09833L7.24946 15.8313C6.7069 16.4573 5.75957 16.525 5.13353 15.9824C4.5075 15.4398 4.43983 14.4925 4.9824 13.8665L16.0176 1.13353C16.5602 0.5075 17.5075 0.439834 18.1335 0.982396Z" fill="#DD9C3C"/>
<path d="M22.4471 9.02585C22.9558 8.37193 22.8379 7.42952 22.184 6.92091C21.5301 6.41231 20.5877 6.53011 20.0791 7.18403L14.9209 13.816C14.4123 14.4699 14.5301 15.4123 15.184 15.9209C15.8379 16.4295 16.7804 16.3117 17.289 15.6578L22.4471 9.02585Z" fill="#DD9C3C"/>
</g>
<defs>
<filter id="filter0_d_302_200" x="0" y="0" width="33" height="24.3489" filterUnits="userSpaceOnUse" color-interpolation-filters="sRGB">
<feFlood flood-opacity="0" result="BackgroundImageFix"/>
<feColorMatrix in="SourceAlpha" type="matrix" values="0 0 0 0 0 0 0 0 0 0 0 0 0 0 0 0 0 0 127 0" result="hardAlpha"/>
<feOffset dy="4"/>
<feGaussianBlur stdDeviation="2"/>
<feComposite in2="hardAlpha" operator="out"/>
<feColorMatrix type="matrix" values="0 0 0 0 0 0 0 0 0 0 0 0 0 0 0 0 0 0 0.25 0"/>
<feBlend mode="normal" in2="BackgroundImageFix" result="effect1_dropShadow_302_200"/>
<feBlend mode="normal" in="SourceGraphic" in2="effect1_dropShadow_302_200" result="shape"/>
</filter>
</defs>
</svg>
